<?xml version="1.0" encoding="UTF-8" standalone="no"?>
<!-- Created with Inkscape (http://www.inkscape.org/) -->

<svg xmlns:dc="http://purl.org/dc/elements/1.1/" xmlns:cc="http://creativecommons.org/ns#" xmlns:rdf="http://www.w3.org/1999/02/22-rdf-syntax-ns#" xmlns:svg="http://www.w3.org/2000/svg" xmlns="http://www.w3.org/2000/svg" xmlns:sodipodi="http://sodipodi.sourceforge.net/DTD/sodipodi-0.dtd" xmlns:inkscape="http://www.inkscape.org/namespaces/inkscape" width="288" height="96" id="svg4874" version="1.1" inkscape:version="0.91 r13725" viewBox="0 0 288 96.000001" sodipodi:docname="convergence.svg">
  <defs id="defs4876" />
  <sodipodi:namedview id="base" pagecolor="#ffffff" bordercolor="#666666" borderopacity="1.0" inkscape:pageopacity="0.0" inkscape:pageshadow="2" inkscape:zoom="2.4837123" inkscape:cx="211.46851" inkscape:cy="2.480221" inkscape:document-units="px" inkscape:current-layer="g4780" showgrid="true" showborder="true" fit-margin-top="0" fit-margin-left="0" fit-margin-right="0" fit-margin-bottom="0" inkscape:snap-bbox="true" inkscape:bbox-paths="true" inkscape:bbox-nodes="true" inkscape:snap-bbox-edge-midpoints="true" inkscape:snap-bbox-midpoints="true" inkscape:object-paths="true" inkscape:snap-intersection-paths="true" inkscape:object-nodes="true" inkscape:snap-smooth-nodes="true" inkscape:snap-midpoints="true" inkscape:snap-object-midpoints="true" inkscape:snap-center="true" showguides="true" inkscape:guide-bbox="true" inkscape:snap-global="true" inkscape:window-width="1867" inkscape:window-height="1056" inkscape:window-x="53" inkscape:window-y="24" inkscape:window-maximized="1">
    <inkscape:grid type="xygrid" id="grid5451" empspacing="8" />
    <sodipodi:guide orientation="1,0" position="8,-8.0000001" id="guide4063" />
    <sodipodi:guide orientation="1,0" position="4,-8.0000001" id="guide4065" />
    <sodipodi:guide orientation="0,1" position="-8,88.000001" id="guide4067" />
    <sodipodi:guide orientation="0,1" position="-8,92.000001" id="guide4069" />
    <sodipodi:guide orientation="0,1" position="104,4" id="guide4071" />
    <sodipodi:guide orientation="0,1" position="-5,8.0000001" id="guide4073" />
    <sodipodi:guide orientation="1,0" position="88,-8.0000001" id="guide4077" />
    <sodipodi:guide orientation="0,1" position="-8,84.000001" id="guide4074" />
    <sodipodi:guide orientation="1,0" position="12,-8.0000001" id="guide4076" />
    <sodipodi:guide orientation="1,0" position="84,-8.0000001" id="guide4080" />
    <sodipodi:guide position="48,-8.0000001" orientation="1,0" id="guide4170" />
    <sodipodi:guide position="-8,48" orientation="0,1" id="guide4172" />
    <sodipodi:guide position="92,-8.0000001" orientation="1,0" id="guide4760" />
  </sodipodi:namedview>
  <metadata id="metadata4879">
    <rdf:RDF>
      <cc:Work rdf:about="">
        <dc:format>image/svg+xml</dc:format>
        <dc:type rdf:resource="http://purl.org/dc/dcmitype/StillImage" />
        <dc:title></dc:title>
      </cc:Work>
    </rdf:RDF>
  </metadata>
  <g inkscape:label="Layer 1" inkscape:groupmode="layer" id="layer1" transform="translate(67.857146,-78.50504)">
    <g transform="matrix(0,-1,-1,0,373.50506,516.50504)" id="g4845" style="display:inline">
      <g inkscape:export-ydpi="90" inkscape:export-xdpi="90" inkscape:export-filename="next01.png" transform="matrix(-0.9996045,0,0,1,575.94296,-611.00001)" id="g4778" inkscape:label="Layer 1">
        <g transform="matrix(-1,0,0,1,575.99999,611)" id="g4780" style="display:inline">
          <rect style="color:#000000;display:inline;overflow:visible;visibility:visible;fill:none;stroke:none;stroke-width:4;marker:none;enable-background:accumulate" id="rect4782" width="96.037987" height="96" x="-438.00244" y="341.36221" transform="scale(-1,1)" />
          <path sodipodi:nodetypes="ccccccccc" inkscape:connector-curvature="0" id="path4297" d="m 381.97988,351.36261 c -10.00396,0 -9.8873,3.91306 -10.00396,14 l 0,47.99961 c 0.11666,10.08694 0,14 10.00396,14 l 36.01466,0 c 10.00396,0 9.8873,-3.91306 10.00396,-14 l 0,-47.99961 c -0.11666,-10.08694 0,-14 -10.00396,-14 z" style="color:#000000;display:inline;overflow:visible;visibility:visible;opacity:1;fill:none;fill-opacity:1;fill-rule:nonzero;stroke:#808080;stroke-width:4.00079155;stroke-linecap:butt;stroke-linejoin:miter;stroke-miterlimit:4;stroke-dasharray:none;stroke-dashoffset:0;stroke-opacity:1;marker:none;enable-background:accumulate" />
          <rect style="color:#000000;display:inline;overflow:visible;visibility:visible;opacity:1;fill:#808080;fill-opacity:1;fill-rule:nonzero;stroke:none;stroke-width:8.0015831;stroke-linecap:butt;stroke-linejoin:miter;stroke-miterlimit:4;stroke-dasharray:none;stroke-dashoffset:0;stroke-opacity:1;marker:none;enable-background:accumulate" id="rect4188" width="15.999997" height="6.0023842" x="-397.36221" y="-371.97635" transform="matrix(0,-1,-1,0,0,0)" />
          <path style="color:#000000;display:inline;overflow:visible;visibility:visible;opacity:1;fill:#808080;fill-opacity:1;fill-rule:nonzero;stroke:none;stroke-width:8.0015831;stroke-linecap:butt;stroke-linejoin:miter;stroke-miterlimit:4;stroke-dasharray:none;stroke-dashoffset:0;stroke-opacity:1;marker:none;enable-background:accumulate" d="m 349.96763,429.36222 4.00158,0 8.00317,-12 0,-56 -8.00316,-12 -4.00159,0 z" id="path4190" inkscape:connector-curvature="0" sodipodi:nodetypes="ccccccc" />
          <path style="color:#000000;font-style:normal;font-variant:normal;font-weight:normal;font-stretch:normal;font-size:medium;line-height:normal;font-family:sans-serif;text-indent:0;text-align:start;text-decoration:none;text-decoration-line:none;text-decoration-style:solid;text-decoration-color:#000000;letter-spacing:normal;word-spacing:normal;text-transform:none;direction:ltr;writing-mode:lr-tb;baseline-shift:baseline;text-anchor:start;white-space:normal;clip-rule:nonzero;display:inline;overflow:visible;visibility:visible;opacity:1;isolation:auto;mix-blend-mode:normal;color-interpolation:sRGB;color-interpolation-filters:linearRGB;solid-color:#000000;solid-opacity:1;fill:#808080;fill-opacity:1;fill-rule:nonzero;stroke:none;stroke-width:4.00000048;stroke-linecap:butt;stroke-linejoin:miter;stroke-miterlimit:4;stroke-dasharray:none;stroke-dashoffset:0;stroke-opacity:1;marker:none;color-rendering:auto;image-rendering:auto;shape-rendering:auto;text-rendering:auto;enable-background:accumulate" d="m 425.99771,311.38566 c -0.0582,5.03276 0.11656,8.71532 -1.54553,11.72656 -0.83104,1.50562 -2.23467,2.69686 -3.98986,3.35547 -1.75519,0.6586 -3.83796,0.89648 -6.46936,0.89648 l -48.02095,0 c -2.6314,0 -4.71221,-0.23788 -6.4674,-0.89648 -1.75519,-0.65861 -3.16273,-1.84985 -3.99377,-3.35547 -1.66208,-3.01124 -1.48342,-6.6938 -1.54162,-11.72656 l 0,-0.0117 0,-64.02148 0,-0.0117 c 0.0582,-5.03276 -0.12046,-8.71533 1.54162,-11.72657 0.83104,-1.50562 2.23858,-2.69686 3.99377,-3.35546 1.75519,-0.6586 3.836,-0.89649 6.4674,-0.89649 l 48.02095,0 c 2.6314,0 4.71417,0.23789 6.46936,0.89649 1.75519,0.6586 3.15882,1.84984 3.98986,3.35546 1.66209,3.01124 1.48733,6.69381 1.54553,11.72657 l 0,0.0117 0,64.02148 0,0.0117 z m -4.00158,-0.0449 0,-63.97657 c -0.0176,-1.50603 -0.0549,-2.80742 -0.10747,-4.00195 l -63.81039,0 c -0.0525,1.19453 -0.0899,2.49592 -0.10747,4.00195 l 0,0.0234 0,63.95313 0,0.0215 c 0.0281,2.40796 0.0883,4.39387 0.22665,6 l 63.57202,0 c 0.13856,-1.6103 0.19872,-3.60364 0.22666,-6.02148 z m -24.0095,-71.97657 0,-4.00195 -16.00633,0 0,4.00195 16.00633,0 z" id="path4297-3" inkscape:connector-curvature="0" />
          <path style="color:#000000;font-style:normal;font-variant:normal;font-weight:normal;font-stretch:normal;font-size:medium;line-height:normal;font-family:sans-serif;text-indent:0;text-align:start;text-decoration:none;text-decoration-line:none;text-decoration-style:solid;text-decoration-color:#000000;letter-spacing:normal;word-spacing:normal;text-transform:none;direction:ltr;writing-mode:lr-tb;baseline-shift:baseline;text-anchor:start;white-space:normal;clip-rule:nonzero;display:inline;overflow:visible;visibility:visible;opacity:1;isolation:auto;mix-blend-mode:normal;color-interpolation:sRGB;color-interpolation-filters:linearRGB;solid-color:#000000;solid-opacity:1;fill:#808080;fill-opacity:1;fill-rule:nonzero;stroke:none;stroke-width:4.00000048;stroke-linecap:butt;stroke-linejoin:miter;stroke-miterlimit:4;stroke-dasharray:none;stroke-dashoffset:0;stroke-opacity:1;marker:none;color-rendering:auto;image-rendering:auto;shape-rendering:auto;text-rendering:auto;enable-background:accumulate" d="m 419.99533,199.20331 c -0.038,3.28223 0.0773,5.6839 -1.00668,7.64775 -0.54199,0.98193 -1.4574,1.75882 -2.60209,2.18835 -1.14468,0.42952 -2.50428,0.58467 -4.22042,0.58467 l -44.36537,0 c -1.71613,0 -3.07573,-0.15515 -4.22041,-0.58467 -1.14469,-0.42953 -2.0601,-1.20642 -2.60209,-2.18835 -1.08397,-1.96385 -0.96872,-4.36552 -1.00668,-7.64775 l 0,-0.008 0,-15.66619 0,-0.008 c 0.038,-3.28223 -0.0773,-5.68391 1.00668,-7.64776 0.54199,-0.98193 1.4574,-1.75883 2.60209,-2.18835 1.14468,-0.42952 2.50428,-0.58466 4.22041,-0.58466 l 44.36537,0 c 1.71614,0 3.07574,0.15514 4.22042,0.58467 1.14469,0.42952 2.0601,1.20642 2.60209,2.18835 1.08396,1.96385 0.96872,4.36552 1.00668,7.64775 l 0,0.008 0,15.66619 z m -6.52432,7.75857 0,-31.1999 c -0.39552,-0.03 -0.81913,-0.0509 -1.30487,-0.0509 l -44.36537,0 0,31.30308 44.36537,0 c 0.48574,0 0.90935,-0.0222 1.30487,-0.0522 z m -48.27996,-10.38256 0,-10.43478 -2.60846,0 0,10.43478 z" id="path4297-6" inkscape:connector-curvature="0" sodipodi:nodetypes="cscsscccccccsssssccccccsccscccccc" />
        </g>
      </g>
    </g>
  </g>
</svg>
