<?xml version="1.0" encoding="utf-8"?>
<!-- Generator: Adobe Illustrator 17.0.0, SVG Export Plug-In . SVG Version: 6.00 Build 0)  -->
<!DOCTYPE svg PUBLIC "-//W3C//DTD SVG 1.1//EN" "http://www.w3.org/Graphics/SVG/1.1/DTD/svg11.dtd">
<svg version="1.1" id="Isolation_Mode" xmlns="http://www.w3.org/2000/svg" xmlns:xlink="http://www.w3.org/1999/xlink" x="0px"
	 y="0px" width="120px" height="90px" viewBox="0 0 120 90" enable-background="new 0 0 120 90" xml:space="preserve">
<path opacity="0.4" fill="#DD4815" enable-background="new    " d="M77.758,67.697L77.758,67.697
	c0-9.551-7.743-17.294-17.294-17.294c-9.552,0-17.294,7.743-17.294,17.294l0,0H77.758z"/>
<path opacity="0.3" fill="#DD4815" enable-background="new    " d="M77.758,67.697L77.758,67.697
	c0-9.551-7.743-17.294-17.294-17.294c-9.552,0-17.294,7.743-17.294,17.294l0,0H77.758z"/>
<path opacity="0.9" fill="#DD4815" enable-background="new    " d="M69.995,67.697L69.995,67.697c0-3.89-2.334-7.23-5.675-8.712
	V29.214h2.656l-6.513-7.753l-6.515,7.753h2.66v29.771c-3.343,1.481-5.679,4.821-5.679,8.713l0,0h19.066L69.995,67.697L69.995,67.697
	z"/>
<line fill="none" stroke="#DD4815" stroke-miterlimit="10" x1="22.266" y1="67.697" x2="98.662" y2="67.697"/>
</svg>
