<?xml version="1.0" encoding="utf-8"?>
<!-- Generator: Adobe Illustrator 17.0.0, SVG Export Plug-In . SVG Version: 6.00 Build 0)  -->
<!DOCTYPE svg PUBLIC "-//W3C//DTD SVG 1.1//EN" "http://www.w3.org/Graphics/SVG/1.1/DTD/svg11.dtd">
<svg version="1.1" id="Isolation_Mode" xmlns="http://www.w3.org/2000/svg" xmlns:xlink="http://www.w3.org/1999/xlink" x="0px"
	 y="0px" width="120px" height="90px" viewBox="0 0 120 90" enable-background="new 0 0 120 90" xml:space="preserve">
<g>
	<circle opacity="0.4" fill="#DD4815" enable-background="new    " cx="95.979" cy="26.222" r="17.294"/>
	<circle opacity="0.3" fill="#DD4815" enable-background="new    " cx="95.979" cy="26.222" r="17.294"/>
	<path opacity="0.9" fill="#DD4815" enable-background="new    " d="M64.499,44.17l9.962,1.82l-1.318-2.311l17.175-9.792
		c2.942,2.171,7.001,2.545,10.382,0.618c4.574-2.608,6.167-8.429,3.559-13.003c-2.607-4.573-8.428-6.167-13.002-3.559
		c-3.379,1.926-5.125,5.608-4.758,9.245L69.323,36.98l-1.316-2.307L64.499,44.17z"/>
</g>
<g>
	<circle opacity="0.4" fill="#DD4815" enable-background="new    " cx="28.032" cy="64.961" r="17.294"/>
	<circle opacity="0.3" fill="#DD4815" enable-background="new    " cx="28.032" cy="64.961" r="17.294"/>
	<path opacity="0.9" fill="#DD4815" enable-background="new    " d="M59.512,47.013l-9.962-1.82l1.318,2.311l-17.175,9.792
		c-2.942-2.171-7.001-2.545-10.382-0.618c-4.574,2.608-6.167,8.429-3.559,13.003c2.607,4.573,8.428,6.166,13.002,3.559
		c3.379-1.926,5.125-5.608,4.758-9.245l17.176-9.792l1.316,2.307L59.512,47.013z"/>
</g>
</svg>
