<?xml version="1.0" encoding="utf-8"?>
<!-- Generator: Adobe Illustrator 17.0.0, SVG Export Plug-In . SVG Version: 6.00 Build 0)  -->
<!DOCTYPE svg PUBLIC "-//W3C//DTD SVG 1.1//EN" "http://www.w3.org/Graphics/SVG/1.1/DTD/svg11.dtd">
<svg version="1.1" id="Isolation_Mode" xmlns="http://www.w3.org/2000/svg" xmlns:xlink="http://www.w3.org/1999/xlink" x="0px"
	 y="0px" width="120px" height="90px" viewBox="0 0 120 90" enable-background="new 0 0 120 90" xml:space="preserve">
<g>
	<circle opacity="0.4" fill="#DC4814" cx="34.918" cy="45.296" r="17.294"/>
	<circle opacity="0.3" fill="#DC4814" cx="34.918" cy="45.296" r="17.294"/>
</g>
<g>
	<circle opacity="0.4" fill="#DC4814" cx="86.418" cy="45.213" r="17.294"/>
	<circle opacity="0.3" fill="#DC4814" cx="86.418" cy="45.213" r="17.294"/>
</g>
<path opacity="0.9" fill="#DB4717" d="M26.875,40.345c1.148-1.905,2.858-3.259,4.788-3.994c0.566-3.02,1.596-6.004,3.146-8.844
	c3.467-6.356,8.837-10.936,14.989-13.452l0.038,0.08l-1.138-2.4l9.796,2.562l-4.213,9.208l-1.14-2.404l0.016,0.034
	c-4.443,1.72-8.368,4.869-11.018,9.266c-0.166,0.276-0.327,0.556-0.483,0.841c-0.982,1.8-1.683,3.677-2.129,5.583
	c0.163,0.086,0.328,0.165,0.487,0.261c4.528,2.729,5.986,8.611,3.257,13.139c-2.729,4.528-8.611,5.986-13.139,3.257
	C25.604,50.755,24.146,44.873,26.875,40.345z"/>
<path opacity="0.9" fill="#DB4717" d="M94.785,50.333c-1.148,1.905-2.858,3.259-4.788,3.994c-0.566,3.02-1.596,6.004-3.146,8.844
	c-3.467,6.356-8.837,10.936-14.989,13.452l-0.038-0.08l1.138,2.4l-9.796-2.562l4.213-9.208l1.14,2.404l-0.016-0.034
	c4.443-1.72,8.368-4.869,11.018-9.266c0.166-0.276,0.327-0.556,0.483-0.841c0.982-1.8,1.683-3.677,2.129-5.583
	c-0.163-0.086-0.328-0.165-0.487-0.261c-4.528-2.729-5.986-8.611-3.257-13.139c2.729-4.528,8.611-5.986,13.139-3.257
	C96.055,39.922,97.514,45.805,94.785,50.333z"/>
</svg>
